<svg width="143" height="140" viewBox="0 0 143 140" fill="none" xmlns="http://www.w3.org/2000/svg">
<path d="M43.1215 74.8389C57.332 81.5552 68.2757 68.9222 69.5824 59.4874C61.4683 57.1811 52.0288 49.6134 44.8523 42.6966C27.0284 51.9075 31.6036 69.3952 43.1215 74.8389Z" fill="white"/>
<path fill-rule="evenodd" clip-rule="evenodd" d="M35.3276 32.4699C35.9547 31.9651 36.8811 32.0535 37.3968 32.6675C39.371 35.0183 42.3472 38.2624 45.8837 41.6709C49.4377 45.0964 53.5357 48.6667 57.7311 51.6575C61.943 54.66 66.1715 57.0192 69.9923 58.1052L71.2094 58.4512L71.0391 59.6807C70.3332 64.7774 67.0664 70.6353 62.0835 74.3633C57.0195 78.152 50.1431 79.7557 42.4824 76.135C36.2597 73.194 31.9026 67.0063 31.516 60.2611C31.1486 53.851 34.368 47.1652 42.4446 42.3768C39.4396 39.3985 36.9027 36.6115 35.1257 34.4956C34.6101 33.8816 34.7005 32.9747 35.3276 32.4699ZM44.6048 44.4716C36.8412 48.8172 34.1448 54.7489 34.4515 60.0998C34.776 65.7622 38.4654 71.0402 43.7606 73.5428C50.3104 76.6385 56.011 75.2838 60.2983 72.0763C64.2761 69.1002 67.0019 64.5419 67.9111 60.475C63.9952 59.1421 59.9091 56.7707 56.0004 53.9844C51.9635 51.1066 48.0446 47.7344 44.6048 44.4716Z" fill="black"/>
<path d="M102.904 74.8389C88.693 81.5552 77.7493 68.9222 76.4426 59.4874C84.5567 57.1811 93.9962 49.6134 101.173 42.6966C118.997 51.9075 114.421 69.3952 102.904 74.8389Z" fill="white"/>
<path fill-rule="evenodd" clip-rule="evenodd" d="M110.697 32.4699C110.07 31.9651 109.144 32.0535 108.628 32.6675C106.654 35.0183 103.678 38.2624 100.141 41.6709C96.5873 45.0964 92.4894 48.6667 88.2939 51.6575C84.082 54.66 79.8535 57.0192 76.0328 58.1052L74.8156 58.4512L74.9859 59.6807C75.6918 64.7774 78.9586 70.6353 83.9416 74.3633C89.0055 78.152 95.8819 79.7557 103.543 76.135C109.765 73.194 114.122 67.0063 114.509 60.2611C114.876 53.851 111.657 47.1652 103.58 42.3768C106.585 39.3985 109.122 36.6115 110.899 34.4956C111.415 33.8816 111.325 32.9747 110.697 32.4699ZM101.42 44.4716C109.184 48.8172 111.88 54.7489 111.574 60.0998C111.249 65.7622 107.56 71.0402 102.264 73.5428C95.7146 76.6385 90.014 75.2838 85.7268 72.0763C81.7489 69.1002 79.0231 64.5419 78.114 60.475C82.0299 59.1421 86.116 56.7707 90.0246 53.9844C94.0615 51.1066 97.9804 47.7344 101.42 44.4716Z" fill="black"/>
<path d="M57.822 55.6495C57.822 59.8887 54.3118 63.3252 49.9817 63.3252C45.6517 63.3252 42.1414 59.8887 42.1414 55.6495C42.1414 51.4102 45.6517 47.9737 49.9817 47.9737C54.3118 47.9737 57.822 51.4102 57.822 55.6495Z" fill="black"/>
<path d="M88.203 55.6495C88.203 59.8887 91.7132 63.3252 96.0433 63.3252C100.373 63.3252 103.884 59.8887 103.884 55.6495C103.884 51.4102 100.373 47.9737 96.0433 47.9737C91.7132 47.9737 88.203 51.4102 88.203 55.6495Z" fill="black"/>
<path d="M52.9218 53.7305C52.9218 54.7903 52.0443 55.6495 50.9617 55.6495C49.8792 55.6495 49.0017 54.7903 49.0017 53.7305C49.0017 52.6707 49.8792 51.8116 50.9617 51.8116C52.0443 51.8116 52.9218 52.6707 52.9218 53.7305Z" fill="white"/>
<path d="M93.1032 53.7305C93.1032 54.7903 93.9807 55.6495 95.0632 55.6495C96.1458 55.6495 97.0233 54.7903 97.0233 53.7305C97.0233 52.6707 96.1458 51.8116 95.0632 51.8116C93.9807 51.8116 93.1032 52.6707 93.1032 53.7305Z" fill="white"/>
<path d="M69.0924 91.6297C42.4355 78.9647 35.7712 88.5914 35.7712 94.9879C34.5952 109.572 49.3284 107.781 56.842 105.062C60.0395 103.905 66.2503 100.457 80.3628 103.143C98.0034 106.502 102.414 99.7852 101.924 91.6297C101.433 83.4742 92.6132 85.3931 84.7729 90.6702C78.5007 94.8919 71.7058 93.0689 69.0924 91.6297Z" fill="black"/>
<path fill-rule="evenodd" clip-rule="evenodd" d="M42.8983 87.5267C38.6315 88.9123 37.2413 92.2643 37.2413 94.9879V95.0446L37.2367 95.1012C36.961 98.5198 37.632 100.776 38.7099 102.264C39.7841 103.747 41.3972 104.653 43.3861 105.113C47.4504 106.053 52.6868 105.031 56.3324 103.712C56.6273 103.606 56.9668 103.47 57.3528 103.316C58.883 102.707 61.1427 101.806 64.2427 101.246C68.158 100.539 73.4253 100.357 80.6434 101.731C89.3379 103.386 94.3398 102.462 97.0855 100.535C99.7475 98.666 100.687 95.5537 100.456 91.7142C100.348 89.9246 99.8026 88.9284 99.1639 88.3737C98.5182 87.8128 97.5437 87.4998 96.16 87.5509C93.3276 87.6556 89.4424 89.2739 85.6057 91.8562C78.7539 96.468 71.3617 94.5113 68.4124 92.9064C55.2044 86.6372 47.332 86.0869 42.8983 87.5267ZM41.9726 84.7947C47.531 82.9897 56.3083 83.9561 69.7342 90.3349L69.7743 90.354L69.8131 90.3753C72.1184 91.6449 78.2792 93.2945 83.9401 89.4843C87.9437 86.7895 92.3888 84.8098 96.0491 84.6746C97.9117 84.6058 99.7243 85.0124 101.115 86.2205C102.513 87.4348 103.254 89.2571 103.391 91.5452C103.65 95.8612 102.629 100.185 98.7987 102.874C95.0517 105.504 89.0283 106.259 80.0822 104.556C73.1878 103.244 68.2934 103.442 64.7758 104.077C62.0066 104.577 60.0955 105.336 58.5662 105.943C58.1345 106.115 57.7332 106.274 57.3515 106.412C53.4835 107.812 47.5965 109.045 42.7099 107.914C40.2232 107.339 37.904 106.128 36.3117 103.929C34.7306 101.747 34.0004 98.7764 34.3013 94.93C34.3217 91.2662 36.2731 86.6456 41.9726 84.7947Z" fill="black"/>
<path d="M99.9634 90.0929C72.1305 99.8979 50.4717 92.7364 43.1215 87.93C46.5516 86.4881 58.802 87.5696 66.1523 91.1743C72.0325 94.0582 77.6896 93.3895 78.4027 93.0689C96.0433 85.1384 99.9634 88.1704 99.9634 90.0929Z" fill="white"/>
<path d="M38.2213 103.623C39.2013 106.981 49.0017 108.229 56.842 105.542C66.6423 102.184 42.6315 94.0284 38.2213 103.623Z" fill="#FF5757"/>
<path d="M62.052 68.0905C60.4737 71.7521 53.9463 76.1971 45.2196 72.5914C36.4929 68.9858 34.7405 61.1199 36.3189 57.4583C37.8972 53.7968 38.5887 64.124 47.3154 67.7296C56.0421 71.3352 63.6304 64.429 62.052 68.0905Z" fill="#DFECF1"/>
<path d="M108.978 56.5085C111.008 59.9503 110.793 67.6696 102.822 72.1751C94.8515 76.6806 87.5034 73.2361 85.4737 69.7943C83.444 66.3524 92.1564 72.1104 100.127 67.605C108.098 63.0995 106.949 53.0667 108.978 56.5085Z" fill="#DFECF1"/>
</svg>
