<svg width="150" height="150" viewBox="0 0 150 150" fill="none" xmlns="http://www.w3.org/2000/svg">
<path d="M70.9494 61.9558C70.9494 71.338 63.3437 78.9437 53.9616 78.9437C44.5794 78.9437 36.9737 71.338 36.9737 61.9558C36.9737 52.5737 44.5794 44.9679 53.9616 44.9679C63.3437 44.9679 70.9494 52.5737 70.9494 61.9558Z" fill="white"/>
<path fill-rule="evenodd" clip-rule="evenodd" d="M53.9616 76.9452C62.2399 76.9452 68.9509 70.2342 68.9509 61.9558C68.9509 53.6775 62.2399 46.9665 53.9616 46.9665C45.6832 46.9665 38.9722 53.6775 38.9722 61.9558C38.9722 70.2342 45.6832 76.9452 53.9616 76.9452ZM53.9616 78.9437C63.3437 78.9437 70.9494 71.338 70.9494 61.9558C70.9494 52.5737 63.3437 44.9679 53.9616 44.9679C44.5794 44.9679 36.9737 52.5737 36.9737 61.9558C36.9737 71.338 44.5794 78.9437 53.9616 78.9437Z" fill="black"/>
<path d="M79.943 61.9558C79.943 71.338 87.5488 78.9437 96.9309 78.9437C106.313 78.9437 113.919 71.338 113.919 61.9558C113.919 52.5737 106.313 44.9679 96.9309 44.9679C87.5488 44.9679 79.943 52.5737 79.943 61.9558Z" fill="white"/>
<path fill-rule="evenodd" clip-rule="evenodd" d="M96.9309 76.9452C88.6525 76.9452 81.9416 70.2342 81.9416 61.9558C81.9416 53.6775 88.6525 46.9665 96.9309 46.9665C105.209 46.9665 111.92 53.6775 111.92 61.9558C111.92 70.2342 105.209 76.9452 96.9309 76.9452ZM96.9309 78.9437C87.5488 78.9437 79.943 71.338 79.943 61.9558C79.943 52.5737 87.5488 44.9679 96.9309 44.9679C106.313 44.9679 113.919 52.5737 113.919 61.9558C113.919 71.338 106.313 78.9437 96.9309 78.9437Z" fill="black"/>
<path d="M62.9551 52.9622C62.9551 56.8255 59.8234 59.9573 55.9601 59.9573C52.0969 59.9573 48.9651 56.8255 48.9651 52.9622C48.9651 49.099 52.0969 45.9672 55.9601 45.9672C59.8234 45.9672 62.9551 49.099 62.9551 52.9622Z" fill="black"/>
<path d="M87.9373 52.9622C87.9373 56.8255 91.0691 59.9573 94.9323 59.9573C98.7956 59.9573 101.927 56.8255 101.927 52.9622C101.927 49.099 98.7956 45.9672 94.9323 45.9672C91.0691 45.9672 87.9373 49.099 87.9373 52.9622Z" fill="black"/>
<path d="M60.9566 51.963C60.9566 53.0667 60.0618 53.9615 58.958 53.9615C57.8542 53.9615 56.9594 53.0667 56.9594 51.963C56.9594 50.8592 57.8542 49.9644 58.958 49.9644C60.0618 49.9644 60.9566 50.8592 60.9566 51.963Z" fill="white"/>
<path d="M89.9359 51.963C89.9359 53.0667 90.8307 53.9615 91.9345 53.9615C93.0383 53.9615 93.933 53.0667 93.933 51.963C93.933 50.8592 93.0383 49.9644 91.9345 49.9644C90.8307 49.9644 89.9359 50.8592 89.9359 51.963Z" fill="white"/>
<path d="M66.9523 63.9853C66.9523 68.1129 63.0004 74.9466 54.1895 74.9466C45.3786 74.9466 40.9708 68.1129 40.9708 63.9853C40.9708 59.8578 45.3786 69.4659 54.1895 69.4659C63.0004 69.4659 66.9523 59.8578 66.9523 63.9853Z" fill="#DFECF1"/>
<path d="M83.9402 63.9853C83.9402 68.1129 87.8921 74.9466 96.703 74.9466C105.514 74.9466 109.922 68.1129 109.922 63.9853C109.922 59.8578 105.514 69.4659 96.703 69.4659C87.8921 69.4659 83.9402 59.8578 83.9402 63.9853Z" fill="#DFECF1"/>
<path fill-rule="evenodd" clip-rule="evenodd" d="M53.6891 30.2761C48.4439 33.3173 43.325 39.2242 40.2126 43.811C39.7477 44.496 38.8156 44.6745 38.1306 44.2097C37.4456 43.7449 37.2671 42.8127 37.7319 42.1277C40.9482 37.3878 46.3718 31.0534 52.1854 27.6826C55.099 25.9933 58.2822 24.9487 61.417 25.4205C64.6242 25.9032 67.4668 27.9228 69.7365 31.7057C70.1625 32.4155 69.9323 33.3362 69.2224 33.7622C68.5125 34.1881 67.5918 33.9579 67.1659 33.248C65.2386 30.0359 63.0889 28.7037 60.9708 28.3849C58.7802 28.0552 56.305 28.7593 53.6891 30.2761Z" fill="black"/>
<path fill-rule="evenodd" clip-rule="evenodd" d="M97.2033 30.2761C102.449 33.3173 107.567 39.2242 110.68 43.811C111.145 44.496 112.077 44.6745 112.762 44.2097C113.447 43.7449 113.625 42.8127 113.161 42.1277C109.944 37.3878 104.521 31.0534 98.7071 27.6826C95.7935 25.9933 92.6102 24.9487 89.4755 25.4205C86.2682 25.9032 83.4256 27.9228 81.1559 31.7057C80.73 32.4155 80.9602 33.3362 81.67 33.7622C82.3799 34.1881 83.3006 33.9579 83.7266 33.248C85.6539 30.0359 87.8035 28.7037 89.9217 28.3849C92.1123 28.0552 94.5875 28.7593 97.2033 30.2761Z" fill="black"/>
<path fill-rule="evenodd" clip-rule="evenodd" d="M37.3967 77.9474C37.9469 77.9051 38.4273 78.3168 38.4696 78.8671C38.5328 79.6884 39.005 80.9598 40.2778 81.8997C41.534 82.8273 43.6985 83.5234 47.3103 82.9531C47.8555 82.867 48.3672 83.2392 48.4532 83.7843C48.5393 84.3294 48.1672 84.8411 47.622 84.9272C43.6393 85.5561 40.8906 84.8366 39.0906 83.5074C37.3073 82.1906 36.5803 80.3642 36.477 79.0204C36.4346 78.4701 36.8464 77.9897 37.3967 77.9474Z" fill="black"/>
<path fill-rule="evenodd" clip-rule="evenodd" d="M113.496 77.9474C112.946 77.9051 112.465 78.3168 112.423 78.8671C112.36 79.6884 111.887 80.9598 110.615 81.8997C109.358 82.8273 107.194 83.5234 103.582 82.9531C103.037 82.867 102.525 83.2392 102.439 83.7843C102.353 84.3294 102.725 84.8411 103.27 84.9272C107.253 85.5561 110.002 84.8366 111.802 83.5074C113.585 82.1906 114.312 80.3642 114.415 79.0204C114.458 78.4701 114.046 77.9897 113.496 77.9474Z" fill="black"/>
<path fill-rule="evenodd" clip-rule="evenodd" d="M35.0263 104.927C35.5774 104.955 36.0013 105.424 35.9731 105.976C35.812 109.117 36.4085 113.416 38.5512 116.31C39.6018 117.728 41.0176 118.804 42.9242 119.274C44.8455 119.747 47.3598 119.627 50.6311 118.473C51.1515 118.289 51.7223 118.562 51.906 119.082C52.0897 119.603 51.8167 120.174 51.2963 120.357C47.7724 121.601 44.849 121.806 42.4463 121.214C40.0289 120.619 38.2345 119.24 36.945 117.499C34.4077 114.072 33.8051 109.228 33.9771 105.873C34.0054 105.322 34.4751 104.898 35.0263 104.927Z" fill="black"/>
<path fill-rule="evenodd" clip-rule="evenodd" d="M115.866 104.927C115.315 104.955 114.891 105.424 114.919 105.976C115.08 109.117 114.484 113.416 112.341 116.31C111.291 117.728 109.875 118.804 107.968 119.274C106.047 119.747 103.533 119.627 100.261 118.473C99.7409 118.289 99.1701 118.562 98.9865 119.082C98.8028 119.603 99.0758 120.174 99.5962 120.357C103.12 121.601 106.043 121.806 108.446 121.214C110.864 120.619 112.658 119.24 113.947 117.499C116.485 114.072 117.087 109.228 116.915 105.873C116.887 105.322 116.417 104.898 115.866 104.927Z" fill="black"/>
<path d="M110.921 107.923C110.921 117.581 95.2621 108.922 75.9459 108.922C56.6297 108.922 39.9715 117.581 39.9715 107.923C39.9715 98.265 56.6297 79.943 75.9459 79.943C95.2621 79.943 110.921 98.265 110.921 107.923Z" fill="black"/>
<path d="M88.437 86.4384C80.8424 78.8438 67.1188 82.7743 60.9566 85.9387L62.9551 90.9352L86.938 90.4355L88.437 86.4384Z" fill="white"/>
<path d="M86.938 108.922C75.9459 107.923 68.9509 108.922 64.9537 108.922L63.4548 105.425H88.437L86.938 108.922Z" fill="white"/>
</svg>
