<svg width="122" height="122" viewBox="0 0 122 122" fill="none" xmlns="http://www.w3.org/2000/svg">
<path fill-rule="evenodd" clip-rule="evenodd" d="M52.6058 24.7188C48.0914 23.4631 42.8396 24.4359 39.3593 25.7805C38.5901 26.0777 37.7256 25.695 37.4284 24.9258C37.1312 24.1566 37.5139 23.2921 38.2831 22.9949C42.1026 21.5192 48.0492 20.3518 53.406 21.8418C56.1179 22.5961 58.6987 24.0393 60.7319 26.4786C62.7624 28.9147 64.1671 32.2482 64.6916 36.6539C64.7891 37.4728 64.2043 38.2156 63.3854 38.3131C62.5666 38.4105 61.8237 37.8258 61.7263 37.0069C61.2553 33.0512 60.0263 30.296 58.438 28.3906C56.8525 26.4884 54.8295 25.3374 52.6058 24.7188Z" fill="black"/>
<path fill-rule="evenodd" clip-rule="evenodd" d="M81.968 32.6997C78.1933 33.6965 74.4276 36.0745 72.1242 37.9807C71.4889 38.5064 70.5477 38.4176 70.022 37.7824C69.4962 37.1471 69.585 36.2059 70.2203 35.6801C72.7281 33.6047 76.876 30.9558 81.2056 29.8124C85.5627 28.6618 90.4763 28.9783 93.7758 33.4561C94.2649 34.12 94.1233 35.0547 93.4594 35.5439C92.7956 36.0331 91.8608 35.8914 91.3717 35.2276C89.0968 32.1402 85.7152 31.7102 81.968 32.6997Z" fill="black"/>
<path d="M48.7754 37.8258C65.4984 39.8167 61.384 59.8909 57.2364 69.6792C52.7571 66.1952 36.0968 64.3792 25.3831 64.9624C22.3969 54.2732 27.8717 35.3373 48.7754 37.8258Z" fill="white"/>
<path fill-rule="evenodd" clip-rule="evenodd" d="M27.277 45.9239C31.0973 39.8266 38.073 35.5493 48.8931 36.8374C53.289 37.3607 56.4169 39.0921 58.5049 41.6345C60.5755 44.1557 61.5422 47.375 61.8243 50.7454C62.3865 57.462 60.2583 65.0989 58.153 70.0675L57.6477 71.26L56.6253 70.4649C55.667 69.7195 53.945 68.9939 51.6114 68.3499C49.3089 67.7144 46.5186 67.1866 43.5148 66.7821C37.5048 65.9728 30.7243 65.6685 25.4372 65.9563C24.1836 66.0246 23.0211 66.1051 21.9818 66.1917C21.434 66.2374 20.9528 65.8303 20.9072 65.2824C20.8615 64.7346 21.2686 64.2534 21.8165 64.2078C22.5354 64.1479 23.3105 64.0909 24.1318 64.0389C22.9663 58.5784 23.7697 51.5216 27.277 45.9239ZM26.1467 63.929C31.4384 63.7052 37.9654 64.026 43.7805 64.8091C46.8409 65.2212 49.7251 65.7641 52.141 66.4308C53.9382 66.9267 55.5396 67.5077 56.7682 68.1904C58.6426 63.4054 60.3264 56.7167 59.8404 50.9115C59.5792 47.791 58.6982 45.0066 56.9665 42.8981C55.2522 40.8107 52.6233 39.2863 48.6577 38.8142C38.5741 37.6138 32.3605 41.5601 28.964 46.981C25.6851 52.2143 24.9838 58.9034 26.1467 63.929Z" fill="black"/>
<path d="M79.5719 41.7091C62.8204 39.9743 62.4203 60.4619 64.3142 70.9226C69.45 68.5088 86.1019 70.4004 96.4251 73.325C101.689 63.554 100.511 43.8777 79.5719 41.7091Z" fill="white"/>
<path fill-rule="evenodd" clip-rule="evenodd" d="M98.7637 54.336C96.3775 47.5479 90.513 41.8415 79.6745 40.719C75.2711 40.263 71.839 41.2643 69.243 43.2854C66.6688 45.2896 65.0179 48.2175 64.0016 51.4434C61.9764 57.872 62.3734 65.79 63.3347 71.0999L63.5655 72.3744L64.7377 71.8235C65.8364 71.3071 67.6758 70.9778 70.0939 70.8627C72.4797 70.749 75.3178 70.8476 78.3371 71.1135C84.3779 71.6454 91.0594 72.8395 96.1538 74.2827C97.3617 74.6249 98.4781 74.9591 99.4729 75.2721C99.9973 75.4371 100.556 75.1457 100.721 74.6213C100.886 74.0969 100.595 73.538 100.07 73.373C99.3823 73.1565 98.6386 72.9306 97.8489 72.6992C100.186 67.6286 100.954 60.5679 98.7637 54.336ZM95.9075 72.149C90.7945 70.7672 84.3567 69.645 78.5117 69.1303C75.4356 68.8594 72.5026 68.7549 69.9992 68.8741C68.137 68.9627 66.447 69.1774 65.0984 69.5732C64.3219 64.4932 64.15 57.598 65.9005 52.0417C66.8414 49.0549 68.3131 46.5325 70.4661 44.8563C72.5973 43.1969 75.497 42.2879 79.4694 42.6993C89.5702 43.7453 94.764 48.9613 96.8855 54.9962C98.9336 60.8224 98.1469 67.5021 95.9075 72.149Z" fill="black"/>
<path d="M38.8212 53.7525C38.8212 57.6007 35.7016 60.7204 31.8533 60.7204C28.005 60.7204 24.8854 57.6007 24.8854 53.7525C24.8854 49.9042 28.005 46.7845 31.8533 46.7845C35.7016 46.7845 38.8212 49.9042 38.8212 53.7525Z" fill="black"/>
<path d="M77.6425 58.7296C77.6425 62.5778 74.5228 65.6975 70.6745 65.6975C66.8263 65.6975 63.7066 62.5778 63.7066 58.7296C63.7066 54.8813 66.8263 51.7617 70.6745 51.7617C74.5228 51.7617 77.6425 54.8813 77.6425 58.7296Z" fill="black"/>
<path d="M31.8533 52.7571C31.8533 53.8566 30.962 54.7479 29.8625 54.7479C28.763 54.7479 27.8717 53.8566 27.8717 52.7571C27.8717 51.6576 28.763 50.7662 29.8625 50.7662C30.962 50.7662 31.8533 51.6576 31.8533 52.7571Z" fill="white"/>
<path d="M70.6745 57.7341C70.6745 58.8337 69.7832 59.725 68.6837 59.725C67.5842 59.725 66.6929 58.8337 66.6929 57.7341C66.6929 56.6346 67.5842 55.7433 68.6837 55.7433C69.7832 55.7433 70.6745 56.6346 70.6745 57.7341Z" fill="white"/>
<path fill-rule="evenodd" clip-rule="evenodd" d="M21.3579 72.0907C21.9502 71.5169 22.8955 71.5319 23.4693 72.1242C33.4767 82.4544 61.2564 98.3645 92.2915 79.3555C92.9947 78.9247 93.914 79.1456 94.3447 79.8489C94.7754 80.5521 94.5545 81.4713 93.8513 81.902C61.1798 101.913 31.889 85.1073 21.3244 74.202C20.7507 73.6097 20.7657 72.6645 21.3579 72.0907Z" fill="black"/>
<path fill-rule="evenodd" clip-rule="evenodd" d="M19.8692 71.8433C19.0151 73.1431 18.5561 74.7364 18.4052 75.7924C18.3275 76.3366 17.8233 76.7148 17.279 76.637C16.7348 76.5593 16.3566 76.0551 16.4344 75.5109C16.6153 74.2442 17.1517 72.3535 18.2055 70.75C19.2677 69.1336 20.9484 67.6883 23.3923 67.6883C23.942 67.6883 24.3877 68.134 24.3877 68.6837C24.3877 69.2335 23.942 69.6791 23.3923 69.6791C21.8545 69.6791 20.7149 70.5564 19.8692 71.8433Z" fill="black"/>
<path fill-rule="evenodd" clip-rule="evenodd" d="M28.4924 87.1721C29.0017 86.9652 29.5824 87.2104 29.7893 87.7197C31.7416 92.5253 40.6157 101.864 60.5105 97.5732C61.0479 97.4573 61.5775 97.7989 61.6934 98.3363C61.8093 98.8737 61.4676 99.4033 60.9303 99.5192C40.2121 103.988 30.306 94.2812 27.9448 88.469C27.7379 87.9597 27.9831 87.379 28.4924 87.1721Z" fill="black"/>
</svg>
