<svg width="122" height="122" viewBox="0 0 122 122" fill="none" xmlns="http://www.w3.org/2000/svg">
<path d="M53.7525 59.725C53.7525 69.0708 46.1762 76.647 36.8304 76.647C27.4846 76.647 19.9083 69.0708 19.9083 59.725C19.9083 50.3792 27.4846 42.8029 36.8304 42.8029C46.1762 42.8029 53.7525 50.3792 53.7525 59.725Z" fill="white"/>
<path fill-rule="evenodd" clip-rule="evenodd" d="M36.8304 74.6562C45.0767 74.6562 51.7616 67.9713 51.7616 59.725C51.7616 51.4787 45.0767 44.7937 36.8304 44.7937C28.5841 44.7937 21.8992 51.4787 21.8992 59.725C21.8992 67.9713 28.5841 74.6562 36.8304 74.6562ZM36.8304 76.647C46.1762 76.647 53.7525 69.0708 53.7525 59.725C53.7525 50.3792 46.1762 42.8029 36.8304 42.8029C27.4846 42.8029 19.9083 50.3792 19.9083 59.725C19.9083 69.0708 27.4846 76.647 36.8304 76.647Z" fill="black"/>
<path d="M61.2181 59.725C61.2181 69.0708 68.7944 76.647 78.1402 76.647C87.486 76.647 95.0622 69.0708 95.0622 59.725C95.0622 50.3792 87.486 42.8029 78.1402 42.8029C68.7944 42.8029 61.2181 50.3792 61.2181 59.725Z" fill="white"/>
<path fill-rule="evenodd" clip-rule="evenodd" d="M78.1402 74.6562C69.8939 74.6562 63.2089 67.9713 63.2089 59.725C63.2089 51.4787 69.8939 44.7937 78.1402 44.7937C86.3865 44.7937 93.0714 51.4787 93.0714 59.725C93.0714 67.9713 86.3865 74.6562 78.1402 74.6562ZM78.1402 76.647C68.7944 76.647 61.2181 69.0708 61.2181 59.725C61.2181 50.3792 68.7944 42.8029 78.1402 42.8029C87.486 42.8029 95.0622 50.3792 95.0622 59.725C95.0622 69.0708 87.486 76.647 78.1402 76.647Z" fill="black"/>
<path d="M46.7846 59.725C46.7846 63.5732 43.6649 66.6929 39.8166 66.6929C35.9684 66.6929 32.8487 63.5732 32.8487 59.725C32.8487 55.8767 35.9684 52.7571 39.8166 52.7571C43.6649 52.7571 46.7846 55.8767 46.7846 59.725Z" fill="black"/>
<path d="M68.186 59.725C68.186 63.5732 71.3057 66.6929 75.1539 66.6929C79.0022 66.6929 82.1218 63.5732 82.1218 59.725C82.1218 55.8767 79.0022 52.7571 75.1539 52.7571C71.3057 52.7571 68.186 55.8767 68.186 59.725Z" fill="black"/>
<path d="M43.7983 58.7296C43.7983 59.8291 42.907 60.7204 41.8075 60.7204C40.708 60.7204 39.8167 59.8291 39.8167 58.7296C39.8167 57.6301 40.708 56.7387 41.8075 56.7387C42.907 56.7387 43.7983 57.6301 43.7983 58.7296Z" fill="white"/>
<path d="M71.1723 58.7296C71.1723 59.8291 72.0636 60.7204 73.1631 60.7204C74.2626 60.7204 75.1539 59.8291 75.1539 58.7296C75.1539 57.6301 74.2626 56.7387 73.1631 56.7387C72.0636 56.7387 71.1723 57.6301 71.1723 58.7296Z" fill="white"/>
<path fill-rule="evenodd" clip-rule="evenodd" d="M14.4335 52.2593C14.4335 51.4347 15.102 50.7662 15.9267 50.7662H53.7525C54.5771 50.7662 55.2456 51.4347 55.2456 52.2593C55.2456 53.084 54.5771 53.7525 53.7525 53.7525H15.9267C15.102 53.7525 14.4335 53.084 14.4335 52.2593Z" fill="black"/>
<path fill-rule="evenodd" clip-rule="evenodd" d="M100.537 52.2593C100.537 51.4347 99.8685 50.7662 99.0439 50.7662H61.2181C60.3935 50.7662 59.725 51.4347 59.725 52.2593C59.725 53.084 60.3935 53.7525 61.2181 53.7525H99.0439C99.8685 53.7525 100.537 53.084 100.537 52.2593Z" fill="black"/>
<path d="M49.7708 63.6519C49.7708 67.4208 45.8342 73.6608 37.0574 73.6608C28.2807 73.6608 23.89 67.4208 23.89 63.6519C23.89 59.883 28.2807 68.6564 37.0574 68.6564C45.8342 68.6564 49.7708 59.883 49.7708 63.6519Z" fill="#DFECF1"/>
<path d="M65.1998 63.6519C65.1998 67.4208 69.1364 73.6608 77.9131 73.6608C86.6899 73.6608 91.0806 67.4208 91.0806 63.6519C91.0806 59.883 86.6899 68.6564 77.9131 68.6564C69.1364 68.6564 65.1998 59.883 65.1998 63.6519Z" fill="#DFECF1"/>
<path fill-rule="evenodd" clip-rule="evenodd" d="M36.2809 27.6459C32.5188 31.497 28.5977 36.8578 26.1361 40.6323C25.6856 41.323 24.7605 41.5178 24.0697 41.0673C23.379 40.6168 23.1843 39.6917 23.6347 39.001C26.1502 35.144 30.1924 29.605 34.1448 25.5591C36.1048 23.5528 38.1431 21.8079 40.0358 20.8621C40.9859 20.3874 42.0099 20.0572 43.0357 20.0822C44.1204 20.1087 45.1175 20.5334 45.8985 21.3925C49.8382 25.7261 55.7748 31.433 58.2552 33.748C58.8581 34.3107 58.8906 35.2555 58.328 35.8584C57.7653 36.4612 56.8205 36.4938 56.2176 35.9311C53.721 33.6009 47.7126 27.8273 43.6889 23.4013C43.4745 23.1654 43.2584 23.0748 42.9628 23.0676C42.6082 23.0589 42.0847 23.1766 41.3706 23.5335C39.9349 24.2509 38.1781 25.7038 36.2809 27.6459Z" fill="black"/>
<path fill-rule="evenodd" clip-rule="evenodd" d="M78.6897 27.6459C82.4517 31.497 86.3729 36.8578 88.8345 40.6323C89.285 41.323 90.2101 41.5178 90.9008 41.0673C91.5915 40.6168 91.7863 39.6917 91.3358 39.001C88.8204 35.144 84.7782 29.605 80.8258 25.5591C78.8658 23.5528 76.8275 21.8079 74.9348 20.8621C73.9847 20.3874 72.9607 20.0572 71.9349 20.0822C70.8502 20.1087 69.853 20.5334 69.072 21.3925C65.1324 25.7261 59.1958 31.433 56.7154 33.748C56.1125 34.3107 56.0799 35.2555 56.6426 35.8584C57.2053 36.4612 58.1501 36.4938 58.7529 35.9311C61.2496 33.6009 67.258 27.8273 71.2817 23.4013C71.4961 23.1654 71.7121 23.0748 72.0078 23.0676C72.3623 23.0589 72.8859 23.1766 73.6 23.5335C75.0357 24.2509 76.7924 25.7038 78.6897 27.6459Z" fill="black"/>
<path fill-rule="evenodd" clip-rule="evenodd" d="M96.1571 79.7579C96.9129 80.0877 97.2583 80.9678 96.9285 81.7236C91.887 93.2769 82.3036 98.0299 72.5695 99.2806C62.8998 100.523 52.9655 98.3436 46.7476 95.9587C45.9776 95.6633 45.5929 94.7998 45.8882 94.0298C46.1835 93.2599 47.0471 92.8751 47.817 93.1705C53.71 95.4308 63.1365 97.4819 72.1889 96.3187C81.1769 95.1639 89.6769 90.8752 94.1915 80.5293C94.5213 79.7735 95.4013 79.4281 96.1571 79.7579Z" fill="black"/>
<path fill-rule="evenodd" clip-rule="evenodd" d="M90.929 75.6911C91.4569 75.0577 92.3984 74.9721 93.0319 75.5L101.991 82.9656C102.624 83.4935 102.71 84.435 102.182 85.0685C101.654 85.702 100.712 85.7876 100.079 85.2597L91.1201 77.7941C90.4866 77.2662 90.401 76.3246 90.929 75.6911Z" fill="black"/>
<path fill-rule="evenodd" clip-rule="evenodd" d="M95.5735 70.0132C95.6639 69.4709 96.1768 69.1046 96.719 69.1949C99.9883 69.7398 106.785 72.9486 108.481 81.4289C108.589 81.968 108.239 82.4924 107.7 82.6002C107.161 82.708 106.637 82.3584 106.529 81.8193C105.04 74.3729 99.0949 71.6092 96.3917 71.1587C95.8495 71.0683 95.4831 70.5554 95.5735 70.0132Z" fill="black"/>
</svg>
