<svg width="140" height="140" viewBox="0 0 140 140" fill="none" xmlns="http://www.w3.org/2000/svg">
<path fill-rule="evenodd" clip-rule="evenodd" d="M52.7908 31.8241C47.4775 33.9071 42.1282 37.4507 38.8367 40.0839C38.1831 40.6067 37.2294 40.5008 36.7065 39.8472C36.1836 39.1935 36.2896 38.2398 36.9432 37.7169C40.3877 34.9613 46.0012 31.23 51.6844 29.002C54.525 27.8884 57.4686 27.1159 60.2151 27.0788C62.9819 27.0415 65.6432 27.7541 67.7251 29.7135C68.3346 30.2872 68.3637 31.2464 67.79 31.8559C67.2163 32.4654 66.2571 32.4945 65.6476 31.9208C64.2941 30.647 62.4802 30.0797 60.256 30.1098C58.0115 30.1401 55.4485 30.7821 52.7908 31.8241Z" fill="black"/>
<path fill-rule="evenodd" clip-rule="evenodd" d="M90.4424 32.4612C87.1804 33.1831 84.1092 35.0398 82.3024 36.5324C81.657 37.0655 80.7017 36.9746 80.1686 36.3292C79.6355 35.6839 79.7265 34.7286 80.3719 34.1955C82.4382 32.4885 85.9346 30.3542 89.7875 29.5016C93.6907 28.6378 98.1344 29.0721 101.64 32.8118C102.213 33.4224 102.182 34.3816 101.571 34.9541C100.961 35.5265 100.001 35.4956 99.429 34.8849C96.8726 32.1581 93.6541 31.7504 90.4424 32.4612Z" fill="black"/>
<path d="M71.7383 64.6655C71.7383 74.71 63.5956 82.8527 53.5511 82.8527C43.5066 82.8527 35.364 74.71 35.364 64.6655C35.364 54.621 43.5066 46.4783 53.5511 46.4783C63.5956 46.4783 71.7383 54.621 71.7383 64.6655Z" fill="white"/>
<path fill-rule="evenodd" clip-rule="evenodd" d="M53.5511 80.8319C62.4796 80.8319 69.7175 73.594 69.7175 64.6655C69.7175 55.7371 62.4796 48.4991 53.5511 48.4991C44.6227 48.4991 37.3848 55.7371 37.3848 64.6655C37.3848 73.594 44.6227 80.8319 53.5511 80.8319ZM53.5511 82.8527C63.5956 82.8527 71.7383 74.71 71.7383 64.6655C71.7383 54.621 63.5956 46.4783 53.5511 46.4783C43.5066 46.4783 35.364 54.621 35.364 64.6655C35.364 74.71 43.5066 82.8527 53.5511 82.8527Z" fill="black"/>
<path d="M108.113 64.6655C108.113 74.71 99.97 82.8527 89.9255 82.8527C79.881 82.8527 71.7383 74.71 71.7383 64.6655C71.7383 54.621 79.881 46.4783 89.9255 46.4783C99.97 46.4783 108.113 54.621 108.113 64.6655Z" fill="white"/>
<path fill-rule="evenodd" clip-rule="evenodd" d="M89.9255 80.8319C98.8539 80.8319 106.092 73.594 106.092 64.6655C106.092 55.7371 98.8539 48.4991 89.9255 48.4991C80.997 48.4991 73.7591 55.7371 73.7591 64.6655C73.7591 73.594 80.997 80.8319 89.9255 80.8319ZM89.9255 82.8527C99.97 82.8527 108.113 74.71 108.113 64.6655C108.113 54.621 99.97 46.4783 89.9255 46.4783C79.881 46.4783 71.7383 54.621 71.7383 64.6655C71.7383 74.71 79.881 82.8527 89.9255 82.8527Z" fill="black"/>
<path d="M54.5615 56.5823C54.5615 60.4885 51.3949 63.6551 47.4887 63.6551C43.5826 63.6551 40.416 60.4885 40.416 56.5823C40.416 52.6761 43.5826 49.5096 47.4887 49.5096C51.3949 49.5096 54.5615 52.6761 54.5615 56.5823Z" fill="black"/>
<path fill-rule="evenodd" clip-rule="evenodd" d="M47.4887 61.6343C50.2789 61.6343 52.5407 59.3725 52.5407 56.5823C52.5407 53.7922 50.2789 51.5303 47.4887 51.5303C44.6986 51.5303 42.4368 53.7922 42.4368 56.5823C42.4368 59.3725 44.6986 61.6343 47.4887 61.6343ZM47.4887 63.6551C51.3949 63.6551 54.5615 60.4885 54.5615 56.5823C54.5615 52.6761 51.3949 49.5096 47.4887 49.5096C43.5826 49.5096 40.416 52.6761 40.416 56.5823C40.416 60.4885 43.5826 63.6551 47.4887 63.6551Z" fill="black"/>
<path d="M90.9359 56.5823C90.9359 60.4885 87.7693 63.6551 83.8631 63.6551C79.9569 63.6551 76.7903 60.4885 76.7903 56.5823C76.7903 52.6761 79.9569 49.5096 83.8631 49.5096C87.7693 49.5096 90.9359 52.6761 90.9359 56.5823Z" fill="black"/>
<path fill-rule="evenodd" clip-rule="evenodd" d="M83.8631 61.6343C86.6532 61.6343 88.9151 59.3725 88.9151 56.5823C88.9151 53.7922 86.6532 51.5303 83.8631 51.5303C81.073 51.5303 78.8111 53.7922 78.8111 56.5823C78.8111 59.3725 81.073 61.6343 83.8631 61.6343ZM83.8631 63.6551C87.7693 63.6551 90.9359 60.4885 90.9359 56.5823C90.9359 52.6761 87.7693 49.5096 83.8631 49.5096C79.9569 49.5096 76.7903 52.6761 76.7903 56.5823C76.7903 60.4885 79.9569 63.6551 83.8631 63.6551Z" fill="black"/>
<path d="M49.5095 54.5615C49.5095 56.2356 48.1524 57.5927 46.4783 57.5927C44.8043 57.5927 43.4472 56.2356 43.4472 54.5615C43.4472 52.8874 44.8043 51.5303 46.4783 51.5303C48.1524 51.5303 49.5095 52.8874 49.5095 54.5615Z" fill="white"/>
<path d="M85.8839 54.5615C85.8839 56.2356 84.5268 57.5927 82.8527 57.5927C81.1786 57.5927 79.8215 56.2356 79.8215 54.5615C79.8215 52.8874 81.1786 51.5303 82.8527 51.5303C84.5268 51.5303 85.8839 52.8874 85.8839 54.5615Z" fill="white"/>
<path fill-rule="evenodd" clip-rule="evenodd" d="M71.9245 90.959C63.3685 92.1644 54.9846 96.5513 49.8946 100.246C49.2172 100.737 48.2694 100.587 47.7778 99.9094C47.2861 99.2319 47.4367 98.2842 48.1141 97.7925C53.4648 93.9089 62.3082 89.2527 71.5016 87.9574C80.7715 86.6514 90.5661 88.7671 97.2447 98.6773C97.7125 99.3714 97.529 100.313 96.8349 100.781C96.1408 101.249 95.1988 101.065 94.731 100.371C88.8807 91.6901 80.404 89.7643 71.9245 90.959Z" fill="black"/>
<path fill-rule="evenodd" clip-rule="evenodd" d="M74.6419 97.1007C70.8403 97.6722 67.2718 99.1872 65.1705 100.399C64.6871 100.678 64.0692 100.513 63.7903 100.029C63.5115 99.5459 63.6773 98.928 64.1606 98.6491C66.4377 97.3354 70.245 95.7182 74.3415 95.1024C78.428 94.4881 82.9754 94.8489 86.5211 97.7297C86.9542 98.0816 87.02 98.718 86.6681 99.151C86.3162 99.5841 85.6799 99.65 85.2468 99.2981C82.3258 96.9248 78.4533 96.5278 74.6419 97.1007Z" fill="black"/>
<path fill-rule="evenodd" clip-rule="evenodd" d="M38.9918 96.4973C39.5476 96.5478 39.9571 97.0392 39.9066 97.595C39.7502 99.3153 39.9691 101.914 41.0872 104.089C42.1724 106.2 44.1036 107.933 47.5418 108.114C48.0991 108.143 48.5271 108.619 48.4977 109.176C48.4684 109.733 47.9929 110.161 47.4356 110.132C43.1948 109.909 40.6635 107.685 39.29 105.013C37.9494 102.405 37.7137 99.3965 37.8941 97.412C37.9446 96.8563 38.4361 96.4467 38.9918 96.4973Z" fill="black"/>
<path d="M67.6967 68.7384C67.6967 72.9118 63.3935 79.8215 53.7993 79.8215C44.2051 79.8215 39.4056 72.9118 39.4056 68.7384C39.4056 64.5649 44.2051 74.2799 53.7993 74.2799C63.3935 74.2799 67.6967 64.5649 67.6967 68.7384Z" fill="#DFECF1"/>
<path d="M104.071 68.7384C104.071 72.9118 99.7678 79.8215 90.1737 79.8215C80.5795 79.8215 75.7799 72.9118 75.7799 68.7384C75.7799 64.5649 80.5795 74.2799 90.1737 74.2799C99.7678 74.2799 104.071 64.5649 104.071 68.7384Z" fill="#DFECF1"/>
</svg>
